<?xml version="1.0" standalone="no"?>
<!DOCTYPE svg PUBLIC "-//W3C//DTD SVG 1.1//EN" "https://www.w3.org/Graphics/SVG/1.1/DTD/svg11.dtd">

<svg width="240" height="240" version="1.1" xmlns="http://www.w3.org/2000/svg">

	<polygon stroke="black" stroke-width="1" points="0.000,0.000 28.787,28.787"/>
	<polygon fill="black" stroke-width="1" points="28.787,28.787 19.191,25.971 25.971,19.191"/>
	<path stroke="black" stroke-width="1" fill="none" d="M 78.282,37.633 A 20.000,20.000 0 1 1 78.282,62.367"/>
	<polygon fill="black" stroke-width="1" points="78.282,62.367 87.961,64.881 81.396,71.870"/>
	<text fill="black" stroke="black" x="116.800" y="53.500" font-family="Courier New" font-size="14">a</text>
	<path stroke="black" stroke-width="1" fill="none" d="M 78.469,40.633 A 195.000,195.000 0 0 1 171.531,40.633"/>
	<polygon fill="black" stroke-width="1" points="171.531,40.633 161.865,43.195 164.153,33.883"/>
	<text fill="black" stroke="black" x="120.800" y="27.300" font-family="Courier New" font-size="14">b</text>
	<path stroke="black" stroke-width="1" fill="none" d="M 228.282,37.633 A 20.000,20.000 0 1 1 228.282,62.367"/>
	<polygon fill="black" stroke-width="1" points="228.282,62.367 237.961,64.881 231.396,71.870"/>
	<text fill="black" stroke="black" x="266.800" y="53.500" font-family="Courier New" font-size="14">b</text>
	<path stroke="black" stroke-width="1" fill="none" d="M 194.879,79.540 A 241.875,241.875 0 0 1 145.560,178.179"/>
	<polygon fill="black" stroke-width="1" points="145.560,178.179 147.484,168.366 154.857,174.497"/>
	<text fill="black" stroke="black" x="181.734" y="140.217" font-family="Courier New" font-size="14">a</text>
	<path stroke="black" stroke-width="1" fill="none" d="M 153.282,187.633 A 20.000,20.000 0 1 1 153.282,212.367"/>
	<polygon fill="black" stroke-width="1" points="153.282,212.367 162.961,214.881 156.396,221.870"/>
	<text fill="black" stroke="black" x="183.400" y="203.500" font-family="Courier New" font-size="14">a,b</text>
	<ellipse stroke="black" stroke-width="1" fill="none" cx="200.000" cy="50.000" rx="30" ry="30"/>
	<text fill="black" stroke="black" x="193.400" y="55.500" font-family="Courier New" font-size="22">B</text>
	<ellipse stroke="black" stroke-width="1" fill="none" cx="125.000" cy="200.000" rx="30" ry="30"/>
	<text fill="black" stroke="black" x="111.800" y="205.500" font-family="Courier New" font-size="22">\0</text>
	<ellipse stroke="black" stroke-width="1" fill="none" cx="50.000" cy="50.000" rx="30" ry="30"/>
	<ellipse stroke="black" stroke-width="1" fill="none" cx="50.000" cy="50.000" rx="25" ry="25"/>
	<text fill="black" stroke="black" x="36.800" y="55.500" font-family="Courier New" font-size="22">AB</text>
</svg>