<?xml version="1.0" standalone="no"?>
<!DOCTYPE svg PUBLIC "-//W3C//DTD SVG 1.1//EN" "https://www.w3.org/Graphics/SVG/1.1/DTD/svg11.dtd">

<svg width="390" height="240" version="1.1" xmlns="http://www.w3.org/2000/svg">

	<polygon stroke="black" stroke-width="1" points="0.000,0.000 28.787,28.787"/>
	<polygon fill="black" stroke-width="1" points="28.787,28.787 19.191,25.971 25.971,19.191"/>
	<path stroke="black" stroke-width="1" fill="none" d="M 78.469,40.633 A 195.000,195.000 0 0 1 171.531,40.633"/>
	<polygon fill="black" stroke-width="1" points="171.531,40.633 161.865,43.195 164.153,33.883"/>
	<text fill="black" stroke="black" x="120.800" y="27.300" font-family="Courier New" font-size="14">1</text>
	<path stroke="black" stroke-width="1" fill="none" d="M 229.902,47.931 A 206.408,206.408 0 0 1 324.490,71.263"/>
	<polygon fill="black" stroke-width="1" points="324.490,71.263 314.492,71.462 318.920,62.957"/>
	<text fill="black" stroke="black" x="277.075" y="46.562" font-family="Courier New" font-size="14">0</text>
	<path stroke="black" stroke-width="1" fill="none" d="M 78.537,59.207 A 278.333,278.333 0 0 1 180.525,127.199"/>
	<polygon fill="black" stroke-width="1" points="180.525,127.199 171.002,124.149 177.947,117.538"/>
	<text fill="black" stroke="black" x="135.333" y="81.700" font-family="Courier New" font-size="14">1</text>
	<path stroke="black" stroke-width="1" fill="none" d="M 222.995,130.766 A 228.075,228.075 0 0 1 320.168,89.954"/>
	<polygon fill="black" stroke-width="1" points="320.168,89.954 312.295,96.120 310.725,86.661"/>
	<text fill="black" stroke="black" x="260.655" y="97.844" font-family="Courier New" font-size="14">1</text>
	<path stroke="black" stroke-width="1" fill="none" d="M 362.367,115.282 A 20.000,20.000 0 1 1 337.633,115.282"/>
	<polygon fill="black" stroke-width="1" points="337.633,115.282 335.119,124.961 328.130,118.396"/>
	<text fill="black" stroke="black" x="337.400" y="161.500" font-family="Courier New" font-size="14">0,1</text>
	<ellipse stroke="black" stroke-width="1" fill="none" cx="50.000" cy="50.000" rx="30" ry="30"/>
	<text fill="black" stroke="black" x="43.400" y="55.500" font-family="Courier New" font-size="22">A</text>
	<ellipse stroke="black" stroke-width="1" fill="none" cx="200.000" cy="50.000" rx="30" ry="30"/>
	<text fill="black" stroke="black" x="193.400" y="55.500" font-family="Courier New" font-size="22">B</text>
	<ellipse stroke="black" stroke-width="1" fill="none" cx="200.000" cy="150.000" rx="30" ry="30"/>
	<text fill="black" stroke="black" x="193.400" y="155.500" font-family="Courier New" font-size="22">C</text>
	<ellipse stroke="black" stroke-width="1" fill="none" cx="350.000" cy="87.000" rx="30" ry="30"/>
	<ellipse stroke="black" stroke-width="1" fill="none" cx="350.000" cy="87.000" rx="25" ry="25"/>
	<text fill="black" stroke="black" x="343.400" y="92.500" font-family="Courier New" font-size="22">D</text>
</svg>